<?xml version="1.0" encoding="UTF-8" standalone="no"?>
<!DOCTYPE svg PUBLIC "-//W3C//DTD SVG 20010904//EN"
              "http://www.w3.org/TR/2001/REC-SVG-20010904/DTD/svg10.dtd">

<svg xmlns="http://www.w3.org/2000/svg"
     width="6.98333in" height="12.4133in"
     viewBox="0 0 2095 3724">
  <path id="Round"
        fill="none" stroke="black" stroke-width="1"
        d="M 916.00,1240.57
           C 920.13,1239.92 923.56,1240.11 926.72,1243.28
             932.07,1248.62 930.50,1259.08 922.00,1261.43
             909.14,1264.97 901.45,1246.32 916.00,1240.57 Z
           M 433.00,1264.44
           C 434.97,1264.26 435.91,1263.96 438.00,1264.44
             452.81,1266.12 450.05,1288.70 435.00,1286.77
             424.05,1285.37 420.46,1270.04 433.00,1264.44 Z
           M 1211.00,1299.57
           C 1215.19,1298.91 1218.53,1299.13 1221.77,1302.28
             1227.59,1307.91 1224.40,1316.39 1217.00,1318.43
             1205.22,1321.67 1195.96,1305.49 1211.00,1299.57 Z
           M 1325.00,1442.39
           C 1326.94,1442.24 1327.97,1441.97 1330.00,1442.39
             1346.18,1444.01 1343.07,1466.59 1327.00,1464.80
             1315.51,1463.51 1310.64,1448.21 1325.00,1442.39 Z
           M 928.02,1457.48
           C 929.67,1457.36 930.22,1457.10 932.00,1457.48
             943.84,1459.23 941.51,1478.58 929.00,1476.62
             920.11,1475.23 917.50,1461.86 928.02,1457.48 Z
           M 448.02,1483.65
           C 462.78,1480.95 464.74,1499.02 453.98,1502.35
             442.61,1505.86 434.90,1489.43 448.02,1483.65 Z
           M 1089.00,1491.47
           C 1097.89,1490.23 1107.32,1492.44 1113.67,1499.18
             1127.99,1514.38 1120.48,1540.48 1099.00,1544.53
             1072.84,1549.47 1056.71,1517.88 1074.33,1499.18
             1078.21,1495.06 1083.59,1492.75 1089.00,1491.47 Z
           M 1457.00,1541.57
           C 1461.13,1540.92 1464.56,1541.11 1467.72,1544.28
             1473.07,1549.62 1471.50,1560.08 1463.00,1562.43
             1450.14,1565.97 1442.45,1547.32 1457.00,1541.57 Z
           M 988.00,1591.49
           C 989.97,1591.28 990.89,1590.92 993.00,1591.49
             1006.59,1593.29 1003.34,1613.77 990.00,1611.76
             981.07,1610.41 976.41,1597.94 988.00,1591.49 Z
           M 1308.00,1627.47
           C 1316.89,1626.23 1326.32,1628.44 1332.67,1635.18
             1346.99,1650.38 1339.48,1676.48 1318.00,1680.53
             1291.84,1685.47 1275.71,1653.88 1293.33,1635.18
             1297.21,1631.06 1302.59,1628.75 1308.00,1627.47 Z
           M 1461.00,1847.47
           C 1466.07,1846.76 1470.11,1846.82 1475.00,1848.55
             1502.33,1858.19 1499.42,1898.17 1471.00,1903.53
             1443.52,1908.72 1427.25,1874.61 1446.18,1855.10
             1450.16,1851.00 1455.54,1848.77 1461.00,1847.47 Z
           M 1549.02,1953.65
           C 1563.78,1950.95 1565.74,1969.02 1554.98,1972.35
             1543.61,1975.86 1535.90,1959.43 1549.02,1953.65 Z
           M 1364.02,1970.65
           C 1378.78,1967.95 1380.74,1986.02 1369.98,1989.35
             1358.61,1992.86 1350.90,1976.43 1364.02,1970.65 Z
           M 419.02,775.74
           C 431.84,772.95 434.67,788.58 424.98,792.26
             416.01,795.67 406.87,782.42 419.02,775.74 Z
           M 1601.67,1854.00
           C 1609.46,2066.47 1445.45,2047.39 1345.09,2015.45
             1338.00,2012.18 1338.36,2006.36 1338.00,2002.73
             1337.45,1958.36 1327.00,1888.50 1290.00,1840.50
             1206.00,1734.50 1076.40,1627.08 955.00,1626.00
             955.33,1622.33 929.98,1546.56 926.00,1541.00
             920.51,1526.33 906.83,1521.01 900.50,1521.50
             900.17,1522.50 482.50,1542.00 482.50,1542.00
             477.45,1542.78 450.67,1549.33 453.00,1578.00
             452.67,1579.00 450.23,1614.23 444.00,1611.45
             355.64,1589.45 302.00,1540.36 302.91,1537.09
             300.00,1534.00 338.33,1380.00 346.33,1274.00
             381.67,1019.67 325.58,723.00 325.58,723.00
             325.58,723.00 283.33,594.24 372.00,514.00
             385.43,502.52 405.15,485.92 421.00,477.74
             421.00,477.74 446.00,464.47 446.00,464.47
             450.91,462.62 461.33,458.67 465.67,459.00
             465.67,459.00 468.43,568.21 471.55,577.00
             474.90,586.47 485.35,598.28 495.09,601.09
             499.87,602.47 597.64,598.18 597.64,598.18
             597.64,598.18 596.55,654.00 602.36,661.45
             624.55,701.64 675.82,682.18 676.91,656.00
             676.36,638.00 674.55,590.73 674.55,590.73
             674.55,590.73 736.55,588.18 736.55,588.18
             736.55,588.18 775.64,586.00 775.64,586.00
             784.11,583.96 789.23,581.81 795.09,575.27
             798.32,571.67 805.09,562.91 804.61,559.81
             806.25,558.11 807.91,557.78 809.64,560.18
             814.91,564.00 827.97,575.47 834.18,579.45
             854.01,592.90 865.44,597.52 887.00,605.19
             951.28,630.09 1009.12,627.88 1076.75,613.88
             1094.91,609.33 1105.59,607.96 1123.12,600.50
             1123.12,600.50 1151.12,588.88 1151.12,588.88
             1177.94,575.93 1181.88,573.00 1220.50,543.12
             1237.25,529.38 1242.41,518.80 1252.25,515.12
             1253.38,512.38 1271.50,521.00 1258.00,567.00
             1243.50,593.50 1161.33,762.33 1171.67,935.00
             1171.17,1041.50 1333.33,1276.00 1333.33,1276.00
             1333.33,1276.00 1454.81,1467.95 1474.00,1503.67
             1474.00,1503.67 1608.67,1759.00 1601.67,1854.00 Z
           M 440.98,518.55
           C 449.28,516.48 449.02,503.27 437.02,504.45
             426.19,508.87 432.42,520.69 440.98,518.55 Z
           M 1214.75,602.25
           C 1223.09,600.17 1221.85,582.78 1209.50,584.00
             1198.67,588.43 1205.74,604.51 1214.75,602.25 Z
           M 817.82,610.55
           C 825.71,608.83 825.55,593.83 814.36,594.36
             803.74,598.58 810.17,612.22 817.82,610.55 Z
           M 809.00,712.50
           C 809.00,712.50 635.26,715.74 482.55,730.91
             435.82,738.00 413.00,822.00 489.27,832.73
             489.27,832.73 800.17,815.38 805.09,814.36
             886.50,791.50 856.00,715.00 809.00,712.50 Z
           M 877.98,768.55
           C 886.32,766.47 891.50,749.00 874.50,748.50
             860.50,755.50 868.97,770.81 877.98,768.55 Z
           M 382.00,876.91
           C 390.30,874.84 388.73,859.55 376.73,860.73
             365.90,865.15 373.44,879.05 382.00,876.91 Z
           M 503.00,985.50
           C 423.25,1009.00 456.00,1087.43 499.00,1092.50
             499.00,1092.50 830.50,1074.25 830.50,1074.25
             901.25,1054.25 868.50,970.50 827.50,968.50
             819.79,963.64 503.00,985.50 503.00,985.50 Z
           M 893.00,1031.00
           C 908.50,1024.50 901.37,1008.23 889.02,1009.45
             878.19,1013.88 881.00,1032.00 893.00,1031.00 Z
           M 434.73,1049.45
           C 446.33,1046.67 443.99,1030.78 431.64,1032.00
             420.81,1036.43 425.72,1051.71 434.73,1049.45 Z
           M 1196.00,1131.33
           C 1204.02,1129.22 1204.36,1112.77 1192.00,1114.00
             1181.97,1118.29 1186.13,1133.91 1196.00,1131.33 Z
           M 391.82,1188.00
           C 401.67,1187.33 400.53,1169.14 388.18,1170.36
             377.35,1174.79 382.81,1190.26 391.82,1188.00 Z
           M 493.25,1257.25
           C 453.50,1269.00 461.25,1312.25 461.00,1313.75
             447.75,1323.75 432.75,1328.75 431.25,1351.50
             431.25,1351.50 435.00,1413.00 435.75,1415.75
             436.50,1424.25 438.75,1440.25 472.25,1449.25
             473.12,1452.38 474.50,1499.75 511.25,1501.25
             513.50,1501.75 872.72,1482.83 878.50,1482.75
             878.50,1482.75 910.50,1478.75 910.00,1433.25
             914.75,1433.00 939.00,1413.50 938.50,1380.38
             938.50,1380.38 936.12,1337.93 936.25,1334.75
             936.62,1326.17 931.75,1301.25 900.75,1288.75
             902.50,1241.00 860.78,1239.41 860.78,1239.41
             855.78,1239.44 501.38,1254.57 493.25,1257.25 Z
           M 348.67,1536.33
           C 357.87,1534.69 358.18,1517.50 345.50,1518.00
             333.75,1521.78 339.14,1538.02 348.67,1536.33 Z
           M 1227.45,1335.45
           C 1227.82,1332.36 1229.64,1320.73 1242.00,1326.00
             1242.00,1326.00 1319.27,1426.91 1320.18,1429.27
             1318.18,1439.45 1306.67,1437.33 1306.67,1437.33
             1306.67,1437.33 1228.00,1336.91 1227.45,1335.45 Z
           M 1281.50,518.62M 1224.00,1468.33" />
</svg>
