<?xml version="1.0" encoding="UTF-8" standalone="no"?>
<!DOCTYPE svg PUBLIC "-//W3C//DTD SVG 20010904//EN"
              "http://www.w3.org/TR/2001/REC-SVG-20010904/DTD/svg10.dtd">

<svg xmlns="http://www.w3.org/2000/svg"
     width="13.9667in" height="24.8267in"
     viewBox="0 0 2095 3724">
  <path id="Pointy"
        fill="none" stroke="black" stroke-width="1"
        d="M 1368.02,2126.65
           C 1382.78,2123.95 1384.74,2142.02 1373.98,2145.35
             1362.61,2148.86 1354.90,2132.43 1368.02,2126.65 Z
           M 1212.02,587.74
           C 1224.84,584.95 1227.67,600.58 1217.98,604.26
             1209.01,607.67 1199.87,594.42 1212.02,587.74 Z
           M 821.02,599.74
           C 824.69,598.88 827.72,598.72 830.77,601.43
             836.56,606.57 833.53,615.62 826.00,616.76
             816.46,618.20 809.85,605.89 821.02,599.74 Z
           M 876.02,753.75
           C 891.03,750.93 888.98,773.09 877.00,770.53
             870.03,769.04 866.45,758.97 876.02,753.75 Z
           M 382.02,867.48
           C 383.67,867.36 384.22,867.10 386.00,867.48
             397.84,869.23 395.51,888.58 383.00,886.62
             374.11,885.23 371.50,871.86 382.02,867.48 Z
           M 890.02,1009.74
           C 893.69,1008.88 896.72,1008.72 899.77,1011.43
             905.63,1016.63 902.84,1026.57 895.00,1027.76
             884.95,1029.28 878.91,1015.86 890.02,1009.74 Z
           M 433.02,1031.74
           C 445.84,1028.95 448.67,1044.58 438.98,1048.26
             430.01,1051.67 420.87,1038.42 433.02,1031.74 Z
           M 1190.00,1121.74
           C 1203.64,1118.79 1207.60,1136.93 1196.00,1141.26
             1189.34,1143.74 1182.15,1137.22 1183.24,1130.00
             1183.89,1125.68 1186.40,1123.66 1190.00,1121.74 Z
           M 396.02,1186.74
           C 399.69,1185.88 402.72,1185.72 405.77,1188.43
             411.63,1193.63 408.84,1203.57 401.00,1204.76
             390.95,1206.28 384.91,1192.86 396.02,1186.74 Z
           M 915.11,1244.75
           C 925.76,1242.67 925.90,1254.96 918.96,1256.53
             912.51,1257.98 907.45,1249.55 915.11,1244.75 Z
           M 436.06,1268.03
           C 445.78,1265.03 448.83,1276.34 441.94,1279.97
             436.00,1283.11 427.19,1274.92 436.06,1268.03 Z
           M 1274.02,1386.65
           C 1288.78,1383.95 1290.74,1402.02 1279.98,1405.35
             1268.61,1408.86 1260.90,1392.43 1274.02,1386.65 Z
           M 930.06,1461.03
           C 939.78,1458.03 942.83,1469.34 935.94,1472.97
             930.00,1476.11 921.19,1467.92 930.06,1461.03 Z
           M 450.06,1488.03
           C 459.78,1485.03 462.83,1496.34 455.94,1499.97
             450.00,1503.11 441.19,1494.92 450.06,1488.03 Z
           M 350.00,1529.74
           C 363.64,1526.79 367.60,1544.93 356.00,1549.26
             349.34,1551.74 342.15,1545.22 343.24,1538.00
             343.89,1533.68 346.40,1531.66 350.00,1529.74 Z
           M 994.02,1600.48
           C 995.67,1600.36 996.22,1600.10 998.00,1600.48
             1009.84,1602.23 1007.51,1621.58 995.00,1619.62
             986.11,1618.23 983.50,1604.86 994.02,1600.48 Z
           M 1494.02,1630.74
           C 1507.27,1627.86 1509.63,1644.60 1499.98,1648.26
             1490.48,1651.87 1481.92,1637.40 1494.02,1630.74 Z
           M 419.02,775.74
           C 431.84,772.95 434.67,788.58 424.98,792.26
             416.01,795.67 406.87,782.42 419.02,775.74 Z
           M 1598.33,1898.67
           C 1597.70,1953.24 1572.06,2060.43 1535.83,2101.00
             1525.08,2113.03 1421.82,2203.72 1314.00,2155.67
             1424.15,1925.06 1208.33,1676.00 959.00,1627.00
             959.33,1623.33 933.43,1557.92 929.45,1552.36
             923.96,1537.70 917.97,1537.15 911.64,1537.64
             911.30,1538.64 478.00,1560.67 478.00,1560.67
             472.95,1561.44 460.17,1565.33 462.50,1594.00
             461.88,1602.00 464.25,1616.38 451.00,1614.62
             360.00,1591.62 314.49,1549.01 299.25,1539.50
             297.72,1537.13 342.50,1377.50 350.50,1271.50
             385.83,1017.17 325.58,723.00 325.58,723.00
             325.58,723.00 283.33,594.24 372.00,514.00
             385.43,502.52 405.15,485.92 421.00,477.74
             421.00,477.74 446.00,464.47 446.00,464.47
             450.91,462.62 465.67,456.67 470.00,457.00
             470.00,457.00 473.88,583.71 477.00,592.50
             480.35,601.97 493.51,607.19 503.25,610.00
             508.03,611.38 603.75,607.50 603.75,607.50
             603.75,607.50 604.68,658.05 610.50,665.50
             632.68,705.68 676.91,685.18 678.00,659.00
             677.45,641.00 676.25,604.25 676.25,604.25
             676.25,604.25 787.00,598.50 787.00,598.50
             795.47,596.46 803.75,591.50 808.75,582.00
             810.25,573.00 808.77,558.85 810.50,561.25
             815.77,565.07 829.06,574.93 835.27,578.91
             855.10,592.36 865.44,597.52 887.00,605.19
             951.28,630.09 1012.30,633.05 1079.00,616.37
             1097.16,611.83 1107.46,609.46 1125.00,602.00
             1125.00,602.00 1153.00,590.74 1153.00,590.74
             1179.82,577.79 1191.50,576.50 1219.50,552.00
             1248.50,527.00 1275.50,508.00 1257.50,568.00
             1243.00,594.50 1161.50,763.00 1167.50,931.00
             1167.00,1037.50 1235.27,1151.09 1324.50,1283.00
             1324.50,1283.00 1444.50,1472.28 1463.69,1508.00
             1463.69,1508.00 1594.67,1713.33 1598.33,1898.67 Z
           M 440.98,518.55
           C 449.28,516.48 449.02,503.27 437.02,504.45
             426.19,508.87 432.42,520.69 440.98,518.55 Z
           M 809.00,712.50
           C 809.00,712.50 635.26,715.74 482.55,730.91
             435.82,738.00 413.00,822.00 489.27,832.73
             489.27,832.73 800.17,815.38 805.09,814.36
             886.50,791.50 856.00,715.00 809.00,712.50 Z
           M 503.00,985.50
           C 423.25,1009.00 456.00,1087.43 499.00,1092.50
             499.00,1092.50 830.50,1074.25 830.50,1074.25
             901.25,1054.25 868.50,970.50 827.50,968.50
             819.79,963.64 503.00,985.50 503.00,985.50 Z
           M 493.25,1257.25
           C 453.50,1269.00 461.25,1312.25 461.00,1313.75
             447.75,1323.75 432.75,1328.75 431.25,1351.50
             431.25,1351.50 435.00,1413.00 435.75,1415.75
             436.50,1424.25 438.75,1440.25 472.25,1449.25
             473.12,1452.38 474.50,1499.75 511.25,1501.25
             513.50,1501.75 872.72,1482.83 878.50,1482.75
             878.50,1482.75 910.50,1478.75 910.00,1433.25
             914.75,1433.00 939.00,1413.50 938.50,1380.38
             938.50,1380.38 936.12,1337.93 936.25,1334.75
             936.62,1326.17 931.75,1301.25 900.75,1288.75
             902.50,1241.00 860.78,1239.41 860.78,1239.41
             855.78,1239.44 501.38,1254.57 493.25,1257.25 Z
           M 1105.32,1329.33
           C 1089.31,1345.20 1101.26,1375.83 1125.00,1371.67
             1144.45,1368.27 1149.99,1342.52 1136.68,1329.33
             1131.17,1323.87 1124.43,1322.51 1117.00,1323.33
             1112.58,1324.39 1108.62,1326.06 1105.32,1329.33 Z
           M 1397.00,1554.57
           C 1407.75,1552.69 1407.96,1534.88 1394.00,1535.43
             1380.46,1539.66 1386.41,1556.41 1397.00,1554.57 Z
           M 1344.64,1707.00
           C 1333.40,1722.58 1343.55,1744.71 1363.00,1745.91
             1390.73,1747.62 1398.98,1709.04 1374.00,1698.93
             1369.43,1697.08 1365.84,1696.83 1361.00,1697.30
             1354.12,1698.65 1348.86,1701.14 1344.64,1707.00 Z
           M 1437.23,2008.01
           C 1426.10,2025.24 1436.14,2050.58 1457.67,2051.91
             1492.55,2054.06 1495.72,1998.25 1460.67,1996.20
             1460.67,1996.20 1455.67,1996.20 1455.67,1996.20
             1447.96,1997.81 1441.59,2001.26 1437.23,2008.01 Z
           M 1287.67,1417.67
           C 1287.67,1417.67 1297.33,1409.33 1297.33,1409.33
             1297.33,1409.33 1384.00,1517.67 1384.00,1517.67
             1384.00,1517.67 1372.67,1526.00 1372.67,1526.00
             1372.67,1526.00 1287.67,1417.67 1287.67,1417.67 Z" />
</svg>
